<?xml version="1.0" standalone="no"?>
<!DOCTYPE svg PUBLIC "-//W3C//DTD SVG 20010904//EN"
 "http://www.w3.org/TR/2001/REC-SVG-20010904/DTD/svg10.dtd">
<svg version="1.0" xmlns="http://www.w3.org/2000/svg"
 width="650.000000pt" height="650.000000pt" viewBox="0 0 650.000000 650.000000"
 preserveAspectRatio="xMidYMid meet">
<metadata>
Created by potrace 1.14, written by Peter Selinger 2001-2017
</metadata>
<g transform="translate(0.000000,650.000000) scale(0.100000,-0.100000)"
fill="#000000" stroke="none">
<path d="M0 3250 l0 -3250 3250 0 3250 0 0 3250 0 3250 -3250 0 -3250 0 0
-3250z m6450 2765 l0 -405 -105 0 -105 0 0 300 0 300 -305 0 -305 0 0 105 0
105 410 0 410 0 0 -405z m-1265 -425 c196 -19 313 -58 404 -137 63 -53 218
-264 258 -350 77 -166 91 -400 34 -566 -28 -79 -89 -199 -131 -255 -35 -46
-37 -47 -97 -50 l-61 -3 -33 46 -33 45 -30 -29 c-43 -40 -68 -51 -119 -51 -43
0 -44 1 -68 51 -13 28 -40 65 -60 83 -26 22 -39 45 -48 80 -16 64 -35 100 -66
124 -19 15 -25 29 -25 60 0 24 -8 49 -20 65 l-20 25 63 67 c110 118 115 141
72 365 -5 23 -2 22 29 -13 32 -36 35 -37 41 -17 8 25 -7 74 -48 155 -37 76
-135 172 -247 245 l-84 55 69 6 c39 3 79 6 90 7 11 1 70 -3 130 -8z m-1706
-710 c16 0 16 -7 3 -126 -14 -114 -13 -127 1 -141 15 -15 17 -14 26 8 6 13 16
44 22 69 11 43 12 44 22 20 59 -147 97 -191 148 -170 17 7 44 9 66 6 101 -18
113 -12 323 160 165 136 281 224 295 224 4 0 -37 -46 -90 -102 -185 -195 -282
-363 -197 -341 29 7 30 13 -19 -96 -30 -68 -31 -74 -16 -86 22 -16 21 -22 -4
-107 -15 -48 -19 -76 -12 -90 8 -19 12 -17 57 29 57 57 58 65 -25 -169 -130
-369 -132 -373 -232 -373 -86 0 -143 31 -242 130 -58 58 -95 107 -133 175 -96
173 -126 312 -125 580 0 193 23 324 75 430 l33 65 3 -47 c2 -38 7 -48 21 -48z
m-1530 -846 c30 -64 47 -92 54 -85 7 7 7 26 0 58 -14 60 -9 67 11 17 31 -78
47 -88 57 -39 4 17 7 25 8 20 2 -20 104 -190 149 -250 317 -416 1092 -854
1783 -1009 356 -80 545 -44 624 118 37 76 43 174 18 289 -11 48 -18 87 -17 87
2 0 50 -47 106 -104 95 -96 140 -127 156 -111 4 3 -4 34 -16 68 -12 34 -22 67
-22 72 0 6 20 -11 44 -37 45 -49 66 -60 66 -33 0 23 21 18 55 -14 37 -35 82
-52 72 -27 -4 9 -10 23 -13 31 -7 18 9 19 37 4 16 -8 25 -7 40 7 19 17 20 17
35 -5 48 -69 142 -177 192 -221 71 -63 180 -118 249 -127 54 -6 63 -15 63 -74
0 -15 9 -38 20 -52 19 -24 19 -27 4 -63 -11 -26 -15 -56 -11 -94 3 -44 0 -64
-18 -100 -13 -25 -28 -73 -35 -105 -9 -50 -9 -67 4 -104 22 -60 21 -62 -21
-56 -60 9 -85 -11 -103 -80 -9 -33 -19 -66 -24 -73 -12 -20 -68 -14 -111 13
-53 33 -88 32 -103 0 -7 -14 -12 -34 -12 -43 -1 -42 -16 -45 -60 -13 -24 17
-51 31 -61 31 -24 0 -39 -29 -39 -74 0 -41 -2 -41 -59 -21 -23 8 -114 18 -208
24 -511 31 -1005 132 -1488 305 -335 120 -520 210 -725 351 -168 117 -233 179
-307 292 -176 270 -289 597 -448 1301 -11 49 12 17 54 -74z m-494 -870 c16
-25 16 -26 -23 -77 -22 -29 -48 -69 -58 -89 -16 -35 -17 -39 0 -56 16 -18 15
-23 -24 -103 -71 -147 -100 -282 -100 -464 0 -171 29 -240 113 -268 48 -16 57
-42 26 -81 -23 -29 -23 -35 -3 -57 12 -14 13 -22 4 -39 -15 -29 -4 -59 38 -97
l35 -32 -32 -40 c-17 -22 -41 -60 -52 -85 -20 -46 -20 -46 0 -90 l19 -45 -30
-48 c-17 -26 -31 -49 -33 -51 -1 -1 -14 3 -29 9 -36 17 -57 -5 -103 -101 -20
-41 -38 -77 -39 -79 -2 -2 -13 4 -25 15 -21 19 -21 19 -53 -19 -30 -36 -59
-47 -71 -27 -11 19 -31 10 -49 -21 l-19 -32 -12 30 c-19 45 -27 45 -59 2 -17
-21 -32 -39 -35 -39 -3 0 -17 16 -30 35 l-23 35 -27 -19 c-14 -10 -31 -21 -37
-24 -8 -5 -15 13 -23 55 -6 33 -24 89 -40 124 -16 35 -29 77 -29 94 1 41 -42
85 -102 105 l-47 16 24 47 c19 36 23 58 20 91 -4 38 -1 48 18 63 17 13 25 33
30 74 16 128 84 325 172 496 29 57 38 68 41 51 7 -45 31 -21 107 103 116 189
297 424 424 552 62 62 113 112 115 112 2 0 11 -12 21 -26z m-1183 -2581 l3
-298 293 -3 292 -2 0 -100 0 -100 -405 0 -405 0 0 400 0 400 110 0 110 0 2
-297z"/>
</g>
</svg>
